<?xml version="1.0" encoding="UTF-8" standalone="no"?>
<!DOCTYPE svg PUBLIC "-//W3C//DTD SVG 1.1//EN"
 "http://www.w3.org/Graphics/SVG/1.1/DTD/svg11.dtd">
<!-- Generated by graphviz version 2.43.0 (0)
 -->
<!-- Title: CFG for &#39;_Z3gcdmm&#39; function Pages: 1 -->
<svg width="702pt" height="829pt"
 viewBox="0.00 0.00 702.39 829.00" xmlns="http://www.w3.org/2000/svg" xmlns:xlink="http://www.w3.org/1999/xlink">
<g id="graph0" class="graph" transform="scale(1 1) rotate(0) translate(4 825)">
<title>CFG for &#39;_Z3gcdmm&#39; function</title>
<polygon fill="white" stroke="transparent" points="-4,4 -4,-825 698.39,-825 698.39,4 -4,4"/>
<text text-anchor="middle" x="347.19" y="-7.8" font-family="Times,serif" font-size="14.00">CFG for &#39;_Z3gcdmm&#39; function</text>
<!-- Node0x11b0a90 -->
<g id="node1" class="node">
<title>Node0x11b0a90</title>
<polygon fill="#dbdcde" fill-opacity="0.439216" stroke="#3d50c3" points="73.89,-744.5 73.89,-820.5 305.89,-820.5 305.89,-744.5 73.89,-744.5"/>
<text text-anchor="start" x="81.89" y="-805.3" font-family="Times,serif" font-size="14.00">%2:</text>
<text text-anchor="start" x="81.89" y="-790.3" font-family="Times,serif" font-size="14.00"> %3 = icmp eq i64 %0, 0</text>
<text text-anchor="start" x="81.89" y="-775.3" font-family="Times,serif" font-size="14.00"> br i1 %3, label %27, label %4</text>
<polyline fill="none" stroke="#3d50c3" points="73.89,-767.5 305.89,-767.5 "/>
<text text-anchor="middle" x="131.89" y="-752.3" font-family="Times,serif" font-size="14.00">T</text>
<polyline fill="none" stroke="#3d50c3" points="189.89,-744.5 189.89,-767.5 "/>
<text text-anchor="middle" x="247.89" y="-752.3" font-family="Times,serif" font-size="14.00">F</text>
</g>
<!-- Node0x11b1190 -->
<g id="node2" class="node">
<title>Node0x11b1190</title>
<polygon fill="#dbdcde" fill-opacity="0.439216" stroke="#3d50c3" points="5.89,-23.5 5.89,-91.5 307.89,-91.5 307.89,-23.5 5.89,-23.5"/>
<text text-anchor="start" x="13.89" y="-76.3" font-family="Times,serif" font-size="14.00">%27:</text>
<text text-anchor="start" x="13.89" y="-61.3" font-family="Times,serif" font-size="14.00">27: </text>
<text text-anchor="start" x="13.89" y="-46.3" font-family="Times,serif" font-size="14.00"> %28 = phi i64 [ %26, %24 ], [ %1, %2 ]</text>
<text text-anchor="start" x="13.89" y="-31.3" font-family="Times,serif" font-size="14.00"> ret i64 %28</text>
</g>
<!-- Node0x11b0a90&#45;&gt;Node0x11b1190 -->
<g id="edge1" class="edge">
<title>Node0x11b0a90:s0&#45;&gt;Node0x11b1190</title>
<path fill="none" stroke="black" d="M72.89,-755.5C-66.58,-755.5 27.82,-255.7 83.89,-128 88.57,-117.34 95.74,-107.53 103.8,-98.85"/>
<polygon fill="black" stroke="black" points="106.52,-101.08 111.07,-91.51 101.54,-96.15 106.52,-101.08"/>
</g>
<!-- Node0x11b11e0 -->
<g id="node3" class="node">
<title>Node0x11b11e0</title>
<polygon fill="#c5d6f2" fill-opacity="0.439216" stroke="#3d50c3" points="93.39,-496.5 93.39,-707.5 538.39,-707.5 538.39,-496.5 93.39,-496.5"/>
<text text-anchor="start" x="101.39" y="-692.3" font-family="Times,serif" font-size="14.00">%4:</text>
<text text-anchor="start" x="101.39" y="-677.3" font-family="Times,serif" font-size="14.00">4: </text>
<text text-anchor="start" x="101.39" y="-662.3" font-family="Times,serif" font-size="14.00"> %5 = or i64 %1, %0</text>
<text text-anchor="start" x="101.39" y="-647.3" font-family="Times,serif" font-size="14.00"> %6 = tail call i64 @llvm.cttz.i64(i64 %5, i1 true), !range !2</text>
<text text-anchor="start" x="101.39" y="-632.3" font-family="Times,serif" font-size="14.00"> %7 = lshr i64 %0, %6</text>
<text text-anchor="start" x="101.39" y="-617.3" font-family="Times,serif" font-size="14.00"> %8 = lshr i64 %1, %6</text>
<text text-anchor="start" x="101.39" y="-602.3" font-family="Times,serif" font-size="14.00"> %9 = and i64 %8, 1</text>
<text text-anchor="start" x="101.39" y="-587.3" font-family="Times,serif" font-size="14.00"> %10 = icmp eq i64 %9, 0</text>
<text text-anchor="start" x="101.39" y="-572.3" font-family="Times,serif" font-size="14.00"> %11 = select i1 %10, i64 %7, i64 %8</text>
<text text-anchor="start" x="101.39" y="-557.3" font-family="Times,serif" font-size="14.00"> %12 = select i1 %10, i64 %8, i64 %7</text>
<text text-anchor="start" x="101.39" y="-542.3" font-family="Times,serif" font-size="14.00"> %13 = icmp eq i64 %12, 0</text>
<text text-anchor="start" x="101.39" y="-527.3" font-family="Times,serif" font-size="14.00"> br i1 %13, label %24, label %14</text>
<polyline fill="none" stroke="#3d50c3" points="93.39,-519.5 538.39,-519.5 "/>
<text text-anchor="middle" x="204.39" y="-504.3" font-family="Times,serif" font-size="14.00">T</text>
<polyline fill="none" stroke="#3d50c3" points="315.39,-496.5 315.39,-519.5 "/>
<text text-anchor="middle" x="426.89" y="-504.3" font-family="Times,serif" font-size="14.00">F</text>
</g>
<!-- Node0x11b0a90&#45;&gt;Node0x11b11e0 -->
<g id="edge2" class="edge">
<title>Node0x11b0a90:s1&#45;&gt;Node0x11b11e0</title>
<path fill="none" stroke="black" d="M306.89,-755.5C328.85,-755.5 337.55,-739.54 339.26,-717.95"/>
<polygon fill="black" stroke="black" points="342.77,-717.77 339.58,-707.67 335.77,-717.55 342.77,-717.77"/>
</g>
<!-- Node0x11b1320 -->
<g id="node4" class="node">
<title>Node0x11b1320</title>
<polygon fill="#c5d6f2" fill-opacity="0.439216" stroke="#3d50c3" points="93.39,-128.5 93.39,-211.5 404.39,-211.5 404.39,-128.5 93.39,-128.5"/>
<text text-anchor="start" x="101.39" y="-196.3" font-family="Times,serif" font-size="14.00">%24:</text>
<text text-anchor="start" x="101.39" y="-181.3" font-family="Times,serif" font-size="14.00">24: </text>
<text text-anchor="start" x="101.39" y="-166.3" font-family="Times,serif" font-size="14.00"> %25 = phi i64 [ %11, %4 ], [ %20, %14 ]</text>
<text text-anchor="start" x="101.39" y="-151.3" font-family="Times,serif" font-size="14.00"> %26 = shl i64 %25, %6</text>
<text text-anchor="start" x="101.39" y="-136.3" font-family="Times,serif" font-size="14.00"> br label %27</text>
</g>
<!-- Node0x11b11e0&#45;&gt;Node0x11b1320 -->
<g id="edge3" class="edge">
<title>Node0x11b11e0:s0&#45;&gt;Node0x11b1320</title>
<path fill="none" stroke="black" d="M203.89,-496C203.89,-385.78 175.08,-354.39 203.89,-248 206.41,-238.68 210.37,-229.34 214.92,-220.53"/>
<polygon fill="black" stroke="black" points="218.1,-222.02 219.84,-211.57 211.96,-218.65 218.1,-222.02"/>
</g>
<!-- Node0x11b2830 -->
<g id="node5" class="node">
<title>Node0x11b2830</title>
<polygon fill="#b70d28" fill-opacity="0.439216" stroke="#b70d28" points="213.39,-248.5 213.39,-459.5 676.39,-459.5 676.39,-248.5 213.39,-248.5"/>
<text text-anchor="start" x="221.39" y="-444.3" font-family="Times,serif" font-size="14.00">%14:</text>
<text text-anchor="start" x="221.39" y="-429.3" font-family="Times,serif" font-size="14.00">14: </text>
<text text-anchor="start" x="221.39" y="-414.3" font-family="Times,serif" font-size="14.00"> %15 = phi i64 [ %22, %14 ], [ %12, %4 ]</text>
<text text-anchor="start" x="221.39" y="-399.3" font-family="Times,serif" font-size="14.00"> %16 = phi i64 [ %20, %14 ], [ %11, %4 ]</text>
<text text-anchor="start" x="221.39" y="-384.3" font-family="Times,serif" font-size="14.00"> %17 = tail call i64 @llvm.cttz.i64(i64 %15, i1 true), !range !2</text>
<text text-anchor="start" x="221.39" y="-369.3" font-family="Times,serif" font-size="14.00"> %18 = lshr i64 %15, %17</text>
<text text-anchor="start" x="221.39" y="-354.3" font-family="Times,serif" font-size="14.00"> %19 = icmp ugt i64 %16, %18</text>
<text text-anchor="start" x="221.39" y="-339.3" font-family="Times,serif" font-size="14.00"> %20 = select i1 %19, i64 %18, i64 %16</text>
<text text-anchor="start" x="221.39" y="-324.3" font-family="Times,serif" font-size="14.00"> %21 = select i1 %19, i64 %16, i64 %18</text>
<text text-anchor="start" x="221.39" y="-309.3" font-family="Times,serif" font-size="14.00"> %22 = sub i64 %21, %20</text>
<text text-anchor="start" x="221.39" y="-294.3" font-family="Times,serif" font-size="14.00"> %23 = icmp eq i64 %22, 0</text>
<text text-anchor="start" x="221.39" y="-279.3" font-family="Times,serif" font-size="14.00"> br i1 %23, label %24, label %14</text>
<polyline fill="none" stroke="#b70d28" points="213.39,-271.5 676.39,-271.5 "/>
<text text-anchor="middle" x="328.89" y="-256.3" font-family="Times,serif" font-size="14.00">T</text>
<polyline fill="none" stroke="#b70d28" points="444.39,-248.5 444.39,-271.5 "/>
<text text-anchor="middle" x="560.39" y="-256.3" font-family="Times,serif" font-size="14.00">F</text>
</g>
<!-- Node0x11b11e0&#45;&gt;Node0x11b2830 -->
<g id="edge4" class="edge">
<title>Node0x11b11e0:s1&#45;&gt;Node0x11b2830</title>
<path fill="none" stroke="black" d="M426.89,-496C426.89,-487.39 427.22,-478.52 427.8,-469.6"/>
<polygon fill="black" stroke="black" points="431.29,-469.76 428.55,-459.53 424.31,-469.24 431.29,-469.76"/>
</g>
<!-- Node0x11b1320&#45;&gt;Node0x11b1190 -->
<g id="edge7" class="edge">
<title>Node0x11b1320&#45;&gt;Node0x11b1190</title>
<path fill="none" stroke="black" d="M215.15,-128.48C207.3,-119.05 198.93,-109 191.06,-99.55"/>
<polygon fill="black" stroke="black" points="193.67,-97.22 184.59,-91.77 188.29,-101.7 193.67,-97.22"/>
</g>
<!-- Node0x11b2830&#45;&gt;Node0x11b1320 -->
<g id="edge5" class="edge">
<title>Node0x11b2830:s0&#45;&gt;Node0x11b1320</title>
<path fill="none" stroke="black" d="M211.89,-260C191.96,-260 198.58,-240.74 211.36,-220.14"/>
<polygon fill="black" stroke="black" points="214.4,-221.88 216.94,-211.59 208.54,-218.05 214.4,-221.88"/>
</g>
<!-- Node0x11b2830&#45;&gt;Node0x11b2830 -->
<g id="edge6" class="edge">
<title>Node0x11b2830:s1&#45;&gt;Node0x11b2830</title>
<path fill="none" stroke="black" d="M583.4,-248.31C653.05,-214.82 694.39,-222.72 694.39,-307 694.39,-321.62 690.28,-333.94 683.02,-344.15"/>
<polygon fill="black" stroke="black" points="680.29,-341.96 676.55,-351.88 685.65,-346.46 680.29,-341.96"/>
</g>
</g>
</svg>
